<svg xmlns="http://www.w3.org/2000/svg" width="14" height="14" fill="none" viewBox="0 0 14 14"><g stroke="#a2a2a2" stroke-linecap="round" stroke-linejoin="round" stroke-width="1.5" clip-path="url(#a)"><path d="m6.415 8.944 1.251 1.167 2.642-3.5"/><path d="M11.084 4.083H5.639c-.86 0-1.556.697-1.556 1.556v5.444c0 .86.697 1.556 1.556 1.556h5.445c.859 0 1.555-.697 1.555-1.556V5.64c0-.86-.696-1.556-1.555-1.556"/><path d="m2.179 9.332-.8-5.386a1.555 1.555 0 0 1 1.31-1.767l5.384-.8a1.555 1.555 0 0 1 1.671.955"/></g><defs><clipPath id="a"><path fill="#fff" d="M0 0h14v14H0z"/></clipPath></defs></svg>